<svg width="739" height="86" viewBox="0 0 739 86" fill="none" xmlns="http://www.w3.org/2000/svg">
<path opacity="0.5" d="M15.7969 34.0793V51.8385L39.3976 53.5754V32.2715L15.7969 34.0793ZM39.3659 29.6484L62.0301 29.8257L61.7153 55.773L39.3976 55.5605L39.3659 29.6484Z" stroke="#B7B7B7" stroke-width="2"/>
<path opacity="0.5" d="M22.0088 35.1092V32.5215H19.3477V35.1092H22.0088Z" fill="black"/>
<path opacity="0.5" d="M63.2041 30.9987V28.4111H60.543V30.9987H63.2041Z" fill="black"/>
<path opacity="0.5" d="M22.0088 53.4715V50.8838H19.3477V53.4715H22.0088Z" fill="black"/>
<path opacity="0.5" d="M63.2041 57.0838V54.4961H60.543V57.0838H63.2041Z" fill="black"/>
<path opacity="0.5" d="M67.6369 18.4473H72.1786V19.936H68.311C68.3119 20.0248 68.3136 20.0226 68.311 20.255C63.0039 24.1865 60.0284 26.3552 54.7213 30.2866V55.6315L67.9916 65.6985L66.4304 65.2733L53.7633 56.0923V29.5777L66.4659 20.4677L68.311 20.255L66.2176 20.4677C46.5485 21.5548 6.68554 23.8636 4.44307 23.6934C2.2006 23.5232 1.97138 24.5205 2.13673 25.0405C2.07783 35.7574 2.01609 57.8009 2.24318 60.2397C2.47026 62.6785 3.1423 62.461 3.44958 62.0475L65.1176 64.9187L67.9916 65.7695L68.8077 65.9467L68.8787 20.0778H69.8013V66.1239H72.1786V67.4709C71.5872 67.4118 70.2484 67.3292 69.6239 67.4709C68.9994 67.6127 66.3595 66.632 65.1176 66.1239C45.8271 65.0723 6.68554 63.0258 4.44307 63.2527C2.2006 63.4796 1.40367 61.5985 1.28516 60.6297L1.28516 24.7923C1.28515 22.9774 2.39716 22.7127 2.95282 22.8072L65.7563 19.5461L67.6369 18.4473Z" fill="#636363"/>
<path opacity="0.5" d="M2.95375 62.9704C2.40945 62.864 1.32157 62.3465 1.32157 61.1271C1.32157 59.9078 1.32157 36.4912 1.32157 24.9353C1.27402 24.1909 1.53446 22.7021 2.95375 22.7021" stroke="black" stroke-opacity="0.5"/>
<path opacity="0.6" d="M62.3534 21.001L52.5958 29.0476C52.3238 29.2248 51.7513 29.9905 51.6377 31.6353C51.5243 33.28 51.5904 47.8229 51.6377 54.8887C51.6969 55.326 52.0706 56.4058 53.0926 57.2282C54.1144 58.0506 59.4794 62.6281 62.0341 64.814M58.3084 21.0011C55.6708 23.4705 50.3391 28.4946 50.1121 28.8349C49.8282 29.2603 48.9766 29.3311 48.9411 31.6353C48.9127 33.4785 48.9292 47.5747 48.9411 54.3925C48.9411 54.9951 49.4805 56.6966 51.6377 58.6816C53.7951 60.6666 56.7945 63.3842 58.0245 64.495M54.1571 21.3556L46.4219 29.8275V55.0659V56.0585L54.1571 64.495" stroke="#636363"/>
<path opacity="0.6" d="M50.2551 21.5361L43.7973 29.9726V55.4947L50.2551 64.2147M46.0683 21.5361L41.2427 29.4763V55.4947L46.0683 63.8957M42.2007 21.997L38.3331 29.9726L38.1202 55.7074L42.2007 63.8957M38.3331 21.997L35.7075 29.9726V55.7074L38.1202 63.8957M34.2526 22.3514L32.9753 29.9726V56.6291L34.2526 63.4704M30.2787 22.635V30.2562V56.9481V63.2222M26.6239 22.635L27.7594 30.2562L27.6175 55.9201L26.3046 62.9387M22.3661 22.635L24.9209 29.9726V55.7074L22.3661 62.9387M18.3211 23.0249L22.3661 29.4763V55.7074L18.3211 62.5842M14.3826 23.0249C14.6665 23.4503 18.0255 28.0229 19.6695 30.2562V55.7074L14.3826 62.5842M10.5151 23.592L16.9018 30.2562V55.7074L10.5151 62.5842M6.50559 23.592C6.70429 23.9324 11.8398 28.1766 14.3826 30.2562V55.9201L6.50559 62.2298M69.1316 23.4503L67.1802 24.5507M67.1802 24.5507L54.655 32.2413H11.8279L2.07031 26.8532M67.1802 24.5507V28.98M67.1802 28.98L54.655 34.5099H11.3312L2.07031 30.7524M67.1802 28.98V32.8084M67.1802 61.2372L69.1316 62.4423M67.1802 61.2372V57.0898M67.1802 61.2372L54.655 53.8287H11.3312L2.07031 58.5432M67.1802 57.0898V52.9426M67.1802 57.0898L54.8324 51.4891H11.3312L2.07031 55.4947M67.1802 32.8084L54.655 36.8494H11.3312L2.07031 34.0845M67.1802 32.8084V36.8494M67.1802 36.8494L54.655 39.3662H11.3312L2.07031 37.6647M67.1802 36.8494V41.0676M67.1802 41.0676L54.655 41.7411H11.3312L2.07031 41.0676M67.1802 41.0676V44.8251M67.1802 44.8251L54.655 44.3288H11.3312L2.07031 44.8251M67.1802 44.8251V49.2205M67.1802 49.2205L54.655 46.6683H11.3312L2.07031 48.4052M67.1802 49.2205V52.9426M67.1802 52.9426L54.655 49.2205H11.3312L2.07031 51.8791M62.1416 24.0174L5.90239 26.2152V59.7483L62.1416 61.8044M56.5355 28.0229L10.0183 28.98V57.0898L56.5355 57.9051" stroke="#636363" stroke-width="0.5"/>
<path d="M72.0732 18.0586V20.3981H74.8408V65.31H71.7539V67.6849H78.0697V65.31H76.9697V20.3981H77.7149V18.0586H72.0732Z" fill="#FF5B52"/>
<path d="M75.3359 58.005V58.005C75.3359 59.9449 76.9078 61.5176 78.8467 61.5176H87.8746C89.8136 61.5176 91.3854 59.9449 91.3854 58.005C91.3854 56.065 89.8136 54.4924 87.8746 54.4924H78.8467C76.9078 54.4924 75.3359 56.065 75.3359 58.005Z" fill="#F1CD70"/>
<path d="M75.3359 26.8907V26.8907C75.3359 28.8307 76.9078 30.4033 78.8467 30.4033H87.8746C89.8136 30.4033 91.3854 28.8307 91.3854 26.8907C91.3854 24.9508 89.8136 23.3781 87.8746 23.3781H78.8467C76.9078 23.3781 75.3359 24.9508 75.3359 26.8907Z" fill="#F1CD70"/>
<path d="M84.3711 61.5174V54.4922H92.8973C94.8363 54.4922 96.4082 56.0648 96.4082 58.0047C96.4082 59.9447 94.8363 61.5174 92.8973 61.5174H84.3711Z" fill="#276725"/>
<path d="M84.3672 30.4041V23.3789H92.8934C94.8324 23.3789 96.4043 24.9515 96.4043 26.8914C96.4043 28.8314 94.8324 30.4041 92.8934 30.4041H84.3672Z" fill="#276725"/>
<path d="M94.4615 61.5135C91.6135 61.5135 89.3047 59.2036 89.3047 56.3541V28.2551C89.3047 25.4057 91.6135 23.0957 94.4615 23.0957H99.2746C102.123 23.0957 104.431 25.4057 104.431 28.2551V56.3541C104.431 59.2036 102.123 61.5135 99.2746 61.5135H94.4615Z" fill="#42934A"/>
<path d="M102.008 40.4549C102.008 35.5786 97.7747 31.6256 92.5528 31.6256C87.3309 31.6256 83.0977 35.5786 83.0977 40.4549C83.0977 45.3312 87.3309 49.2842 92.5528 49.2842C97.7747 49.2842 102.008 45.3312 102.008 40.4549Z" fill="#F1CD70"/>
<path d="M100.951 34.6293C100.951 33.7879 98.1108 30.8902 95.3796 30.0723H90.7914L86.8587 32.1755L86.2031 33.2271L87.5141 35.6809L86.2031 37.7842L88.1695 39.8874L88.825 41.6401L88.1695 44.7951L86.2031 47.2487L87.5141 50.7542L94.0688 51.8058C96.0352 50.7542 99.2471 50.614 100.296 50.0532C101.344 49.4923 100.296 46.5477 102.917 47.2487C102.59 45.9635 102.131 43.0423 102.917 41.6401C103.901 39.8874 102.59 39.1864 101.934 37.7842C101.279 36.382 100.951 35.6809 100.951 34.6293Z" fill="#303030"/>
<path d="M91.6324 31.624C97.2024 31.624 101.718 35.7943 101.718 40.9385C101.718 46.0827 97.2024 50.2529 91.6324 50.2529C86.0623 50.2529 81.5469 47.9242 81.5469 40.9385C81.5469 35.7943 86.0623 31.624 91.6324 31.624Z" fill="#42934A"/>
<path d="M91.6313 39.3818C91.2029 39.3818 90.8555 39.7293 90.8555 40.1581C90.8555 40.5867 91.2029 40.9343 91.6313 40.9343C92.0598 40.9343 92.4072 40.7402 92.4072 40.1581C92.4072 39.7293 92.0598 39.3818 91.6313 39.3818Z" fill="#276725"/>
<path d="M86.2011 33.1675C79.3734 37.5458 81.547 47.9105 86.9769 49.4741C83.3565 50.5165 75.3398 50.6245 75.3398 41.2425C75.3398 31.8606 82.5808 32.3856 86.2011 33.1675Z" fill="#276725"/>
<path opacity="0.5" d="M121.512 34.0774V51.8365L145.113 53.5734V32.2695L121.512 34.0774ZM145.081 29.6465L167.745 29.8237L167.43 55.7712L145.113 55.5585L145.081 29.6465Z" stroke="#B7B7B7" stroke-width="2"/>
<path opacity="0.5" d="M127.724 35.1072V32.5195H125.062V35.1072H127.724Z" fill="black"/>
<path opacity="0.5" d="M168.919 30.9979V28.4102H166.258V30.9979H168.919Z" fill="black"/>
<path opacity="0.5" d="M127.724 53.4705V50.8828H125.062V53.4705H127.724Z" fill="black"/>
<path opacity="0.5" d="M168.919 57.0828V54.4951H166.258V57.0828H168.919Z" fill="black"/>
<path opacity="0.5" d="M173.351 18.4463H177.893V19.935H174.025C174.027 20.0238 174.028 20.0216 174.025 20.254C168.719 24.1855 165.744 26.3543 160.436 30.2857V55.6306L173.707 65.6977L172.146 65.2723L159.478 56.0914V29.5767L172.181 20.4667L174.025 20.254L171.932 20.4667C152.264 21.5538 112.4 23.8626 110.158 23.6925C107.915 23.5224 107.686 24.5196 107.852 25.0395C107.793 35.7564 107.731 57.7999 107.958 60.2387C108.185 62.6775 108.857 62.46 109.164 62.0465L170.832 64.9178L173.707 65.7685L174.523 65.9457L174.594 20.0768H175.516V66.1229H177.893V67.4699C177.303 67.411 175.963 67.3282 175.339 67.4699C174.714 67.6118 172.075 66.6311 170.832 66.1229C151.542 65.0715 112.4 63.0248 110.158 63.2517C107.915 63.4786 107.118 61.5976 107 60.6287V24.7913C107 22.9764 108.112 22.7117 108.668 22.8063L171.472 19.5451L173.351 18.4463Z" fill="#636363"/>
<path opacity="0.5" d="M108.669 62.9694C108.124 62.863 107.036 62.3455 107.036 61.1261C107.036 59.9068 107.036 36.4902 107.036 24.9344C106.989 24.1899 107.249 22.7012 108.669 22.7012" stroke="black" stroke-opacity="0.5"/>
<path opacity="0.6" d="M168.067 20.999L158.309 29.0455C158.037 29.2228 157.465 29.9884 157.352 31.6332C157.238 33.2779 157.305 47.8208 157.352 54.8867C157.411 55.3239 157.785 56.4039 158.807 57.2261C159.828 58.0486 165.194 62.626 167.748 64.8119M164.023 20.999C161.385 23.4685 156.053 28.4926 155.826 28.8328C155.543 29.2582 154.691 29.3292 154.656 31.6332C154.627 33.4764 154.643 47.5726 154.656 54.3904C154.656 54.993 155.195 56.6945 157.352 58.6796C159.51 60.6646 162.508 63.3822 163.738 64.4929M159.871 21.3535L152.137 29.8254V55.064V56.0564L159.871 64.4929" stroke="#636363"/>
<path opacity="0.6" d="M155.97 21.5342L149.512 29.9707V55.4928L155.97 64.2128M151.783 21.5342L146.957 29.4744V55.4928L151.783 63.8938M147.915 21.995L144.047 29.9707L143.835 55.7055L147.915 63.8938M144.047 21.995L141.423 29.9707V55.7055L143.835 63.8938M139.967 22.3495L138.69 29.9707V56.6271L139.967 63.4684M135.994 22.633V30.2542V56.9461V63.2204M132.339 22.633L133.475 30.2542L133.332 55.9181L132.019 62.9367M128.081 22.633L130.636 29.9707V55.7055L128.081 62.9367M124.036 23.0229L128.081 29.4744V55.7055L124.036 62.5823M120.097 23.0229C120.381 23.4483 123.74 28.0211 125.384 30.2542V55.7055L120.097 62.5823M116.23 23.5902L122.617 30.2542V55.7055L116.23 62.5823M112.22 23.5902C112.419 23.9305 117.555 28.1747 120.097 30.2542V55.9181L112.22 62.2278M174.846 23.4483L172.895 24.5487M172.895 24.5487L160.37 32.2393H117.543L107.785 26.8514M172.895 24.5487V28.9782M172.895 28.9782L160.37 34.5079H117.046L107.785 30.7506M172.895 28.9782V32.8065M172.895 61.2353L174.846 62.4405M172.895 61.2353V57.0879M172.895 61.2353L160.37 53.8267H117.046L107.785 58.5413M172.895 57.0879V52.9406M172.895 57.0879L160.547 51.4872H117.046L107.785 55.4928M172.895 32.8065L160.37 36.8475H117.046L107.785 34.0825M172.895 32.8065V36.8475M172.895 36.8475L160.37 39.3642H117.046L107.785 37.6628M172.895 36.8475V41.0657M172.895 41.0657L160.37 41.7392H117.046L107.785 41.0657M172.895 41.0657V44.8232M172.895 44.8232L160.37 44.3268H117.046L107.785 44.8232M172.895 44.8232V49.2186M172.895 49.2186L160.37 46.6664H117.046L107.785 48.4033M172.895 49.2186V52.9406M172.895 52.9406L160.37 49.2186H117.046L107.785 51.8771M167.856 24.0155L111.617 26.2133V59.7465L167.856 61.8024M162.25 28.0211L115.733 28.9782V57.0879L162.25 57.9032" stroke="#636363" stroke-width="0.5"/>
<path d="M177.787 18.0566V20.3962H180.555V65.308H177.469V67.683H183.785V65.308H182.684V20.3962H183.429V18.0566H177.787Z" fill="#FF5B52"/>
<path d="M184.562 54.4914C182.623 54.4914 181.051 56.064 181.051 58.004C181.051 59.944 182.623 61.5166 184.562 61.5166H193.589C195.528 61.5166 197.1 59.944 197.1 58.004C197.1 56.064 195.528 54.4914 193.589 54.4914H184.562Z" fill="#F1CD70"/>
<path d="M196.699 1.2435L196.699 1.2435C194.866 1.9299 193.856 4.00085 194.445 5.8691L197.526 15.6453C198.115 17.5136 200.079 18.4717 201.913 17.7853C203.747 17.0989 204.756 15.0279 204.167 13.1597L201.086 3.38344C200.497 1.51519 198.533 0.557102 196.699 1.2435Z" fill="#F1CD70"/>
<path d="M190.078 61.5164V54.4912H198.605C200.544 54.4912 202.115 56.0638 202.115 58.0037C202.115 59.9437 200.544 61.5164 198.605 61.5164H190.078Z" fill="#276725"/>
<path d="M196.305 11.7894L202.945 9.30371L208.084 25.6105C208.673 27.4789 207.664 29.5497 205.831 30.2362C203.996 30.9225 202.033 29.9644 201.443 28.0962L196.305 11.7894Z" fill="#276725"/>
<path d="M200.172 61.5127C197.323 61.5127 195.016 59.2027 195.016 56.3533V28.2541C195.016 25.4047 197.323 23.0947 200.172 23.0947H204.985C207.833 23.0947 210.142 25.4047 210.142 28.2541V56.3533C210.142 59.2027 207.833 61.5127 204.985 61.5127H200.172Z" fill="#42934A"/>
<path d="M207.715 40.4539C207.715 35.5776 203.482 31.6246 198.26 31.6246C193.038 31.6246 188.805 35.5776 188.805 40.4539C188.805 45.3302 193.038 49.2832 198.26 49.2832C203.482 49.2832 207.715 45.3302 207.715 40.4539Z" fill="#F1CD70"/>
<path d="M208.254 41.2989C208.674 40.5703 207.663 36.6399 205.706 34.5653L201.733 32.27L197.276 32.124L196.183 32.7069L196.091 35.4878L193.905 36.6535L194.557 39.4587L194.249 41.3044L192.105 43.7087L189.176 44.8501L188.559 48.5417L193.71 52.7314C195.938 52.8044 198.79 54.2898 199.978 54.3286C201.167 54.3674 201.73 51.2928 203.65 53.2115C204.01 51.9344 205.072 49.175 206.454 48.3541C208.18 47.3282 207.396 46.0652 207.529 44.523C207.662 42.9807 207.729 42.2097 208.254 41.2989Z" fill="#303030"/>
<path d="M201.687 34.0331C206.512 36.8196 208.338 42.69 205.768 47.145C203.197 51.6001 197.202 52.9527 192.378 50.1663C187.554 47.3798 184.808 43.1043 188.299 37.0544C190.87 32.5993 196.865 31.2467 201.687 34.0331Z" fill="#42934A"/>
<path d="M197.343 39.3809C196.914 39.3809 196.566 39.7283 196.566 40.1571C196.566 40.5858 196.914 40.9333 197.343 40.9333C197.771 40.9333 198.119 40.7392 198.119 40.1571C198.119 39.7283 197.771 39.3809 197.343 39.3809Z" fill="#276725"/>
<path d="M196.213 32.6547C188.112 33.0309 184.815 43.0943 188.736 47.1648C185.079 46.2565 178.083 42.3396 182.772 34.2146C187.461 26.0896 193.468 30.1666 196.213 32.6547Z" fill="#276725"/>
<path opacity="0.5" d="M437.363 51.6644V33.9053L460.965 32.1684V53.4722L437.363 51.6644ZM460.932 56.0954L483.597 55.9181L483.282 29.9707L460.965 30.1834L460.932 56.0954Z" stroke="#B7B7B7" stroke-width="2"/>
<path opacity="0.5" d="M443.575 50.6338V53.2214H440.914V50.6338H443.575Z" fill="black"/>
<path opacity="0.5" d="M484.77 54.7441V57.3317H482.109V54.7441H484.77Z" fill="black"/>
<path opacity="0.5" d="M443.575 32.2715V34.8592H440.914V32.2715H443.575Z" fill="black"/>
<path opacity="0.5" d="M484.77 28.6592V31.2469H482.109V28.6592H484.77Z" fill="black"/>
<path opacity="0.5" d="M489.203 67.2955H493.745V65.8066H489.877C489.878 65.718 489.88 65.72 489.877 65.4876C484.571 61.5561 481.595 59.3874 476.288 55.456V30.1111L489.559 20.0441L487.997 20.4695L475.33 29.6503V56.1649L488.032 65.2749L489.877 65.4876L487.783 65.2749C468.115 64.1878 428.252 61.879 426.01 62.0492C423.767 62.2194 423.537 61.222 423.704 60.7022C423.644 49.9852 423.583 27.9417 423.809 25.503C424.036 23.0641 424.709 23.2816 425.016 23.6951L486.684 20.8239L489.559 19.9731L490.375 19.7959L490.446 65.6648H491.367V19.6187H493.745V18.2717C493.154 18.3307 491.815 18.4134 491.191 18.2717C490.565 18.1299 487.926 19.1106 486.684 19.6187C467.393 20.6703 428.252 22.7168 426.01 22.4899C423.767 22.263 422.97 24.1441 422.852 25.1131V60.9503C422.852 62.7652 423.964 63.0299 424.52 62.9354L487.323 66.1965L489.203 67.2955Z" fill="#636363"/>
<path opacity="0.5" d="M424.52 22.7725C423.976 22.8789 422.888 23.3964 422.888 24.6158C422.888 25.8352 422.888 49.2518 422.888 60.8076C422.84 61.552 423.101 63.0407 424.52 63.0407" stroke="black" stroke-opacity="0.5"/>
<path opacity="0.6" d="M483.919 64.7427L474.161 56.6961C473.889 56.5189 473.317 55.7532 473.203 54.1085C473.09 52.4637 473.157 37.9208 473.203 30.855C473.262 30.4177 473.636 29.3379 474.659 28.5155C475.68 27.693 481.045 23.1156 483.599 20.9297M479.875 64.7427C477.237 62.2732 471.905 57.249 471.678 56.9088C471.394 56.4834 470.542 56.4126 470.507 54.1085C470.479 52.2652 470.494 38.169 470.507 31.3512C470.507 30.7486 471.046 29.0471 473.203 27.062C475.361 25.0771 478.36 22.3595 479.59 21.2487M475.722 64.3881L467.988 55.9162V30.6778V29.6852L475.722 21.2487" stroke="#636363"/>
<path opacity="0.6" d="M471.822 64.2069L465.364 55.7705V30.2484L471.822 21.5283M467.634 64.2069L462.809 56.2667V30.2484L467.634 21.8473M463.767 63.7462L459.899 55.7705L459.687 30.0357L463.767 21.8473M459.899 63.7462L457.275 55.7705V30.0357L459.687 21.8473M455.819 63.3916L454.541 55.7705V29.1141L455.819 22.2727M451.846 63.1081V55.4868V28.795V22.5209M448.191 63.1081L449.327 55.4868L449.183 29.823L447.871 22.8044M443.933 63.1081L446.488 55.7705V30.0357L443.933 22.8044M439.888 62.7182L443.933 56.2667V30.0357L439.888 23.1588M435.95 62.7182C436.233 62.2928 439.592 57.7201 441.236 55.4868V30.0357L435.95 23.1588M432.082 62.151L438.469 55.4868V30.0357L432.082 23.1588M428.072 62.151C428.271 61.8107 433.406 57.5665 435.95 55.4868V29.823L428.072 23.5134M490.698 62.2928L488.746 61.1924M488.746 61.1924L476.222 53.5019H433.395L423.637 58.8899M488.746 61.1924V56.763M488.746 56.763L476.222 51.2332H432.898L423.637 54.9906M488.746 56.763V52.9346M488.746 24.5058L490.698 23.3007M488.746 24.5058V28.6532M488.746 24.5058L476.222 31.9144H432.898L423.637 27.1998M488.746 28.6532V32.8006M488.746 28.6532L476.398 34.2539H432.898L423.637 30.2484M488.746 52.9346L476.222 48.8936H432.898L423.637 51.6586M488.746 52.9346V48.8936M488.746 48.8936L476.222 46.3769H432.898L423.637 48.0784M488.746 48.8936V44.6754M488.746 44.6754L476.222 44.002H432.898L423.637 44.6754M488.746 44.6754V40.9181M488.746 40.9181L476.222 41.4143H432.898L423.637 40.9181M488.746 40.9181V36.5225M488.746 36.5225L476.222 39.0747H432.898L423.637 37.3378M488.746 36.5225V32.8006M488.746 32.8006L476.222 36.5225H432.898L423.637 33.864M483.708 61.7256L427.469 59.5278V25.9947L483.708 23.9387M478.102 57.7201L431.585 56.763V28.6532L478.102 27.8379" stroke="#636363" stroke-width="0.5"/>
<path d="M493.639 67.6849V65.3453H496.407V20.4335H493.32V18.0586H499.636V20.4335H498.535V65.3453H499.28V67.6849H493.639Z" fill="#FF5B52"/>
<path d="M496.902 27.7382L496.902 27.7382C496.902 25.7982 498.474 24.2256 500.413 24.2256L509.441 24.2256C511.38 24.2256 512.952 25.7982 512.952 27.7382C512.952 29.6782 511.38 31.2508 509.441 31.2508L500.413 31.2508C498.474 31.2508 496.902 29.6782 496.902 27.7382Z" fill="#F1CD70"/>
<path d="M512.551 84.4977L512.551 84.4977C510.717 83.8113 509.708 81.7404 510.297 79.8721L513.378 70.0959C513.967 68.2276 515.931 67.2696 517.764 67.956C519.598 68.6423 520.607 70.7133 520.019 72.5816L516.937 82.3578C516.349 84.226 514.385 85.1841 512.551 84.4977Z" fill="#F1CD70"/>
<path d="M505.93 24.2256V31.2509H514.456C516.395 31.2509 517.967 29.6782 517.967 27.7382C517.967 25.7983 516.395 24.2257 514.456 24.2257L505.93 24.2256Z" fill="#276725"/>
<path d="M512.156 73.953L518.797 76.4387L523.936 60.1318C524.525 58.2636 523.515 56.1926 521.682 55.5063C519.848 54.8198 517.884 55.7779 517.295 57.6461L512.156 73.953Z" fill="#276725"/>
<path d="M516.024 24.2295C513.175 24.2295 510.867 26.5394 510.867 29.3889V57.4879C510.867 60.3373 513.175 62.6473 516.024 62.6473H520.837C523.684 62.6473 525.993 60.3373 525.993 57.4879V29.3889C525.993 26.5394 523.684 24.2295 520.837 24.2295H516.024Z" fill="#42934A"/>
<path d="M523.567 45.2883C523.567 50.1646 519.333 54.1176 514.111 54.1176C508.889 54.1176 504.656 50.1646 504.656 45.2883C504.656 40.412 508.889 36.459 514.111 36.459C519.333 36.459 523.567 40.412 523.567 45.2883Z" fill="#F1CD70"/>
<path d="M524.105 44.4431C524.526 45.1717 523.515 49.102 521.558 51.1766L517.585 53.4719L513.128 53.6179L512.034 53.035L511.943 50.2542L509.756 49.0886L510.409 46.2834L510.101 44.4375L507.957 42.0332L505.028 40.892L504.41 37.2003L509.562 33.0105C511.79 32.9375 514.641 31.4523 515.83 31.4135C517.019 31.3746 517.582 34.4493 519.502 32.5306C519.861 33.8077 520.924 36.5669 522.306 37.3878C524.032 38.4139 523.248 39.6768 523.381 41.2191C523.514 42.7612 523.581 43.5324 524.105 44.4431Z" fill="#303030"/>
<path d="M517.539 51.7081C522.363 48.9217 524.19 43.0513 521.619 38.5962C519.049 34.1413 513.054 32.7887 508.23 35.5751C503.406 38.3615 500.66 42.637 504.151 48.6869C506.721 53.1419 512.716 54.4946 517.539 51.7081Z" fill="#42934A"/>
<path d="M513.194 46.3609C512.766 46.3609 512.418 46.0134 512.418 45.5847C512.418 45.1561 512.766 44.8086 513.194 44.8086C513.622 44.8086 513.97 45.0026 513.97 45.5847C513.97 46.0134 513.622 46.3609 513.194 46.3609Z" fill="#276725"/>
<path d="M512.064 53.0872C503.963 52.7113 500.667 42.6477 504.587 38.5771C500.931 39.4855 493.935 43.4024 498.623 51.5274C503.312 59.6525 509.32 55.5755 512.064 53.0872Z" fill="#276725"/>
<path opacity="0.5" d="M227.227 34.0774V51.8365L250.828 53.5734V32.2695L227.227 34.0774ZM250.796 29.6465L273.46 29.8237L273.145 55.7712L250.828 55.5585L250.796 29.6465Z" stroke="#B7B7B7" stroke-width="2"/>
<path opacity="0.5" d="M233.438 35.1072V32.5195H230.777V35.1072H233.438Z" fill="black"/>
<path opacity="0.5" d="M274.634 30.9979V28.4102H271.973V30.9979H274.634Z" fill="black"/>
<path opacity="0.5" d="M233.438 53.4705V50.8828H230.777V53.4705H233.438Z" fill="black"/>
<path opacity="0.5" d="M274.634 57.0828V54.4951H271.973V57.0828H274.634Z" fill="black"/>
<path opacity="0.5" d="M279.066 18.4463H283.608V19.935H279.74C279.742 20.0238 279.743 20.0216 279.74 20.254C274.434 24.1855 271.458 26.3543 266.151 30.2857V55.6306L279.422 65.6977L277.861 65.2723L265.193 56.0914V29.5767L277.895 20.4667L279.74 20.254L277.647 20.4667C257.979 21.5538 218.115 23.8626 215.873 23.6925C213.63 23.5224 213.401 24.5196 213.567 25.0395C213.508 35.7564 213.446 57.7999 213.673 60.2387C213.9 62.6775 214.573 62.46 214.879 62.0465L276.547 64.9178L279.422 65.7685L280.238 65.9457L280.309 20.0768H281.231V66.1229H283.608V67.4699C283.017 67.411 281.678 67.3282 281.054 67.4699C280.429 67.6118 277.79 66.6311 276.547 66.1229C257.257 65.0715 218.115 63.0248 215.873 63.2517C213.63 63.4786 212.833 61.5976 212.715 60.6287V24.7913C212.715 22.9764 213.827 22.7117 214.383 22.8063L277.186 19.5451L279.066 18.4463Z" fill="#636363"/>
<path opacity="0.5" d="M214.383 62.9694C213.839 62.863 212.751 62.3455 212.751 61.1261C212.751 59.9068 212.751 36.4902 212.751 24.9344C212.704 24.1899 212.964 22.7012 214.383 22.7012" stroke="black" stroke-opacity="0.5"/>
<path opacity="0.6" d="M273.782 20.999L264.024 29.0455C263.752 29.2228 263.18 29.9884 263.066 31.6332C262.953 33.2779 263.02 47.8208 263.066 54.8867C263.126 55.3239 263.5 56.4039 264.522 57.2261C265.543 58.0486 270.909 62.626 273.462 64.8119M269.738 20.999C267.1 23.4685 261.768 28.4926 261.541 28.8328C261.258 29.2582 260.405 29.3292 260.371 31.6332C260.342 33.4764 260.358 47.5726 260.371 54.3904C260.371 54.993 260.91 56.6945 263.066 58.6796C265.224 60.6646 268.223 63.3822 269.453 64.4929M265.585 21.3535L257.852 29.8254V55.064V56.0564L265.585 64.4929" stroke="#636363"/>
<path opacity="0.6" d="M261.685 21.5342L255.227 29.9707V55.4928L261.685 64.2128M257.498 21.5342L252.672 29.4744V55.4928L257.498 63.8938M253.63 21.995L249.763 29.9707L249.55 55.7055L253.63 63.8938M249.763 21.995L247.138 29.9707V55.7055L249.55 63.8938M245.682 22.3495L244.405 29.9707V56.6271L245.682 63.4684M241.709 22.633V30.2542V56.9461V63.2204M238.054 22.633L239.19 30.2542L239.047 55.9181L237.734 62.9367M233.796 22.633L236.351 29.9707V55.7055L233.796 62.9367M229.752 23.0229L233.796 29.4744V55.7055L229.752 62.5823M225.813 23.0229C226.097 23.4483 229.455 28.0211 231.099 30.2542V55.7055L225.813 62.5823M221.946 23.5902L228.332 30.2542V55.7055L221.946 62.5823M217.935 23.5902C218.135 23.9305 223.27 28.1747 225.813 30.2542V55.9181L217.935 62.2278M280.562 23.4483L278.61 24.5487M278.61 24.5487L266.085 32.2393H223.258L213.5 26.8514M278.61 24.5487V28.9782M278.61 28.9782L266.085 34.5079H222.762L213.5 30.7506M278.61 28.9782V32.8065M278.61 61.2353L280.562 62.4405M278.61 61.2353V57.0879M278.61 61.2353L266.085 53.8267H222.762L213.5 58.5413M278.61 57.0879V52.9406M278.61 57.0879L266.262 51.4872H222.762L213.5 55.4928M278.61 32.8065L266.085 36.8475H222.762L213.5 34.0825M278.61 32.8065V36.8475M278.61 36.8475L266.085 39.3642H222.762L213.5 37.6628M278.61 36.8475V41.0657M278.61 41.0657L266.085 41.7392H222.762L213.5 41.0657M278.61 41.0657V44.8232M278.61 44.8232L266.085 44.3268H222.762L213.5 44.8232M278.61 44.8232V49.2186M278.61 49.2186L266.085 46.6664H222.762L213.5 48.4033M278.61 49.2186V52.9406M278.61 52.9406L266.085 49.2186H222.762L213.5 51.8771M273.572 24.0155L217.333 26.2133V59.7465L273.572 61.8024M267.965 28.0211L221.448 28.9782V57.0879L267.965 57.9032" stroke="#636363" stroke-width="0.5"/>
<path d="M283.502 18.0566V20.3962H286.27V65.308H283.184V67.683H289.499V65.308H288.398V20.3962H289.144V18.0566H283.502Z" fill="#FF5B52"/>
<path d="M290.276 54.4914C288.337 54.4914 286.766 56.064 286.766 58.004C286.766 59.944 288.337 61.5166 290.276 61.5166H299.304C301.243 61.5166 302.815 59.944 302.815 58.004C302.815 56.064 301.243 54.4914 299.304 54.4914H290.276Z" fill="#F1CD70"/>
<path d="M282.933 11.9888L282.933 11.9888C281.889 13.6238 282.368 15.7956 284.002 16.8398L291.611 21.7012C293.245 22.7453 295.416 22.2663 296.459 20.6313L296.459 20.6313C297.503 18.9962 297.024 16.8244 295.39 15.7803L287.781 10.9189C286.147 9.87476 283.976 10.3538 282.933 11.9888Z" fill="#F1CD70"/>
<path d="M295.793 61.5164V54.4912H304.32C306.259 54.4912 307.83 56.0638 307.83 58.0037C307.83 59.9437 306.259 61.5164 304.32 61.5164H295.793Z" fill="#276725"/>
<path d="M288.645 19.8116L292.423 13.8906L305.565 22.2872C307.199 23.3313 307.678 25.5032 306.634 27.1382C305.591 28.7732 303.42 29.2522 301.785 28.2081L288.645 19.8116Z" fill="#276725"/>
<path d="M305.891 61.5127C303.043 61.5127 300.734 59.2027 300.734 56.3533V28.2541C300.734 25.4047 303.043 23.0947 305.891 23.0947H310.705C313.553 23.0947 315.862 25.4047 315.862 28.2541V56.3533C315.862 59.2027 313.553 61.5127 310.705 61.5127H305.891Z" fill="#42934A"/>
<path d="M313.434 40.4539C313.434 35.5776 309.201 31.6246 303.979 31.6246C298.757 31.6246 294.523 35.5776 294.523 40.4539C294.523 45.3302 298.757 49.2832 303.979 49.2832C309.201 49.2832 313.434 45.3302 313.434 40.4539Z" fill="#F1CD70"/>
<path d="M312.377 34.6283C312.377 33.787 309.537 30.8892 306.805 30.0713H302.217L298.285 32.1745L297.629 33.2261L298.94 35.68L297.629 37.7832L299.596 39.8864L300.251 41.6392L299.596 44.7941L297.629 47.2479L298.94 50.7533L305.496 51.805C307.462 50.7533 310.673 50.6131 311.722 50.0522C312.771 49.4913 311.722 46.5467 314.343 47.2479C314.016 45.9626 313.557 43.0413 314.343 41.6392C315.327 39.8864 314.016 39.1854 313.361 37.7832C312.705 36.381 312.377 35.68 312.377 34.6283Z" fill="#303030"/>
<path d="M303.058 31.623C308.629 31.623 313.143 35.7933 313.143 40.9375C313.143 46.0817 308.629 50.2519 303.058 50.2519C297.487 50.2519 292.973 47.9233 292.973 40.9375C292.973 35.7933 297.487 31.623 303.058 31.623Z" fill="#42934A"/>
<path d="M303.061 39.3809C302.633 39.3809 302.285 39.7283 302.285 40.1571C302.285 40.5858 302.633 40.9333 303.061 40.9333C303.489 40.9333 303.837 40.7392 303.837 40.1571C303.837 39.7283 303.489 39.3809 303.061 39.3809Z" fill="#276725"/>
<path d="M297.631 33.1655C290.803 37.5438 292.977 47.9085 298.407 49.4722C294.787 50.5147 286.77 50.6225 286.77 41.2406C286.77 31.8586 294.011 32.3837 297.631 33.1655Z" fill="#276725"/>
<path opacity="0.5" d="M544.367 51.6655V33.9064L567.969 32.1695V53.4734L544.367 51.6655ZM567.936 56.0964L590.6 55.9192L590.286 29.9717L567.969 30.1844L567.936 56.0964Z" stroke="#B7B7B7" stroke-width="2"/>
<path opacity="0.5" d="M550.583 50.6357V53.2234H547.922V50.6357H550.583Z" fill="black"/>
<path opacity="0.5" d="M591.774 54.7451V57.3327H589.113V54.7451H591.774Z" fill="black"/>
<path opacity="0.5" d="M550.583 32.2725V34.8602H547.922V32.2725H550.583Z" fill="black"/>
<path opacity="0.5" d="M591.774 28.6602V31.2479H589.113V28.6602H591.774Z" fill="black"/>
<path opacity="0.5" d="M596.207 67.2963H600.749V65.8076H596.881C596.882 65.7188 596.884 65.721 596.881 65.4886C591.575 61.5571 588.599 59.3883 583.291 55.4569V30.1121L596.562 20.0451L595.001 20.4703L582.334 29.6513V56.1659L595.036 65.2759L596.881 65.4886L594.787 65.2759C575.119 64.1888 535.256 61.88 533.014 62.0501C530.771 62.2202 530.541 61.223 530.708 60.7031C530.648 49.9862 530.586 27.9427 530.813 25.5039C531.04 23.0651 531.713 23.2826 532.02 23.6961L593.688 20.8249L596.562 19.9741L597.379 19.7969L597.449 65.6658H598.371V19.6197H600.749V18.2727C600.158 18.3317 598.819 18.4144 598.195 18.2727C597.569 18.1308 594.93 19.1116 593.688 19.6197C574.397 20.6712 535.256 22.7178 533.014 22.4909C530.771 22.264 529.974 24.145 529.855 25.1139V60.9513C529.855 62.7662 530.968 63.0309 531.524 62.9364L594.327 66.1975L596.207 67.2963Z" fill="#636363"/>
<path opacity="0.5" d="M531.528 22.7734C530.984 22.8799 529.896 23.3973 529.896 24.6168C529.896 25.8361 529.896 49.2526 529.896 60.8086C529.848 61.5529 530.109 63.0417 531.528 63.0417" stroke="black" stroke-opacity="0.5"/>
<path opacity="0.6" d="M590.923 64.7436L581.165 56.6971C580.893 56.5198 580.32 55.7542 580.207 54.1093C580.094 52.4647 580.161 37.9218 580.207 30.856C580.266 30.4187 580.64 29.3387 581.662 28.5164C582.684 27.694 588.049 23.1166 590.603 20.9307M586.879 64.7436C584.241 62.2741 578.909 57.25 578.682 56.9098C578.398 56.4844 577.546 56.4134 577.511 54.1093C577.483 52.2661 577.498 38.17 577.511 31.3522C577.511 30.7496 578.05 29.0481 580.207 27.063C582.365 25.0779 585.364 22.3603 586.594 21.2496M582.726 64.3891L574.992 55.9172V30.6787V29.6862L582.726 21.2496" stroke="#636363"/>
<path opacity="0.6" d="M578.826 64.2079L572.368 55.7715V30.2492L578.826 21.5293M574.638 64.2079L569.813 56.2677V30.2492L574.638 21.8483M570.771 63.747L566.903 55.7715L566.691 30.0367L570.771 21.8483M566.903 63.747L564.278 55.7715V30.0367L566.691 21.8483M562.823 63.3926L561.545 55.7715V29.1149L562.823 22.2737M558.85 63.1091V55.4878V28.796V22.5217M555.195 63.1091L556.33 55.4878L556.187 29.824L554.875 22.8054M550.936 63.1091L553.492 55.7715V30.0367L550.936 22.8054M546.892 62.7191L550.936 56.2677V30.0367L546.892 23.1598M542.954 62.7191C543.237 62.2937 546.596 57.7209 548.239 55.4878V30.0367L542.954 23.1598M539.086 62.152L545.473 55.4878V30.0367L539.086 23.1598M535.075 62.152C535.275 61.8116 540.41 57.5673 542.954 55.4878V29.824L535.075 23.5143M597.702 62.2937L595.75 61.1934M595.75 61.1934L583.226 53.5027H540.399L530.641 58.8907M595.75 61.1934V56.7639M595.75 56.7639L583.226 51.2341H539.902L530.641 54.9916M595.75 56.7639V52.9356M595.75 24.5068L597.702 23.3016M595.75 24.5068V28.6542M595.75 24.5068L583.226 31.9153H539.902L530.641 27.2008M595.75 28.6542V32.8015M595.75 28.6542L583.402 34.2549H539.902L530.641 30.2492M595.75 52.9356L583.226 48.8946H539.902L530.641 51.6595M595.75 52.9356V48.8946M595.75 48.8946L583.226 46.3778H539.902L530.641 48.0793M595.75 48.8946V44.6764M595.75 44.6764L583.226 44.0028H539.902L530.641 44.6764M595.75 44.6764V40.9189M595.75 40.9189L583.226 41.4152H539.902L530.641 40.9189M595.75 40.9189V36.5235M595.75 36.5235L583.226 39.0757H539.902L530.641 37.3388M595.75 36.5235V32.8015M595.75 32.8015L583.226 36.5235H539.902L530.641 33.865M590.712 61.7266L534.473 59.5288V25.9955L590.712 23.9396M585.105 57.7209L538.589 56.7639V28.6542L585.105 27.8389" stroke="#636363" stroke-width="0.5"/>
<path d="M600.647 67.686V65.3464H603.414V20.4346H600.328V18.0596H606.644V20.4346H605.543V65.3464H606.288V67.686H600.647Z" fill="#FF5B52"/>
<path d="M603.906 27.7392L603.906 27.7392C603.906 25.7992 605.478 24.2266 607.417 24.2266L616.445 24.2266C618.384 24.2266 619.956 25.7992 619.956 27.7392C619.956 29.6791 618.384 31.2518 616.445 31.2518L607.417 31.2518C605.478 31.2518 603.906 29.6791 603.906 27.7392Z" fill="#F1CD70"/>
<path d="M600.077 73.7544L600.077 73.7544C599.033 72.1194 599.512 69.9475 601.146 68.9034L608.755 64.042C610.389 62.9979 612.56 63.4769 613.604 65.1119C614.647 66.7469 614.169 68.9188 612.534 69.9629L604.926 74.8243C603.291 75.8684 601.121 75.3894 600.077 73.7544Z" fill="#F1CD70"/>
<path d="M612.938 24.2266V31.2518H621.464C623.403 31.2518 624.975 29.6792 624.975 27.7392C624.975 25.7993 623.403 24.2266 621.464 24.2266H612.938Z" fill="#276725"/>
<path d="M605.785 65.9315L609.564 71.8525L622.706 63.4559C624.339 62.4118 624.819 60.2399 623.775 58.6049C622.732 56.9699 620.561 56.491 618.926 57.535L605.785 65.9315Z" fill="#276725"/>
<path d="M623.032 24.2305C620.184 24.2305 617.875 26.5403 617.875 29.3899V57.4889C617.875 60.3383 620.184 62.6483 623.032 62.6483H627.846C630.693 62.6483 633.002 60.3383 633.002 57.4889V29.3899C633.002 26.5403 630.693 24.2305 627.846 24.2305H623.032Z" fill="#42934A"/>
<path d="M630.578 45.2893C630.578 50.1655 626.345 54.1185 621.123 54.1185C615.901 54.1185 611.668 50.1655 611.668 45.2893C611.668 40.413 615.901 36.46 621.123 36.46C626.345 36.46 630.578 40.413 630.578 45.2893Z" fill="#F1CD70"/>
<path d="M629.522 51.1151C629.522 51.9565 626.682 54.8542 623.95 55.6721H619.362L615.43 53.5689L614.773 52.5173L616.085 50.0635L614.773 47.9602L616.741 45.857L617.396 44.1042L616.741 40.9494L614.773 38.4955L616.085 34.9902L622.64 33.9385C624.606 34.9902 627.818 35.1304 628.867 35.6913C629.915 36.2521 628.867 39.1967 631.488 38.4955C631.16 39.7809 630.701 42.7021 631.488 44.1042C632.472 45.857 631.16 46.558 630.506 47.9602C629.849 49.3624 629.522 50.0635 629.522 51.1151Z" fill="#303030"/>
<path d="M620.203 54.1201C625.773 54.1201 630.288 49.9498 630.288 44.8056C630.288 39.6614 625.773 35.4912 620.203 35.4912C614.632 35.4912 610.117 37.8198 610.117 44.8056C610.117 49.9498 614.632 54.1201 620.203 54.1201Z" fill="#42934A"/>
<path d="M620.202 46.362C619.774 46.362 619.426 46.0146 619.426 45.5858C619.426 45.1572 619.774 44.8096 620.202 44.8096C620.63 44.8096 620.978 45.0037 620.978 45.5858C620.978 46.0146 620.63 46.362 620.202 46.362Z" fill="#276725"/>
<path d="M614.772 52.5769C607.944 48.1986 610.118 37.8338 615.548 36.2701C611.928 35.2278 603.91 35.1198 603.91 44.5019C603.91 53.8838 611.152 53.3587 614.772 52.5769Z" fill="#276725"/>
<path opacity="0.5" d="M332.941 34.0793V51.8385L356.543 53.5754V32.2715L332.941 34.0793ZM356.511 29.6484L379.175 29.8257L378.86 55.773L356.543 55.5605L356.511 29.6484Z" stroke="#B7B7B7" stroke-width="2"/>
<path opacity="0.5" d="M339.153 35.1092V32.5215H336.492V35.1092H339.153Z" fill="black"/>
<path opacity="0.5" d="M380.348 30.9987V28.4111H377.688V30.9987H380.348Z" fill="black"/>
<path opacity="0.5" d="M339.153 53.4715V50.8838H336.492V53.4715H339.153Z" fill="black"/>
<path opacity="0.5" d="M380.348 57.0838V54.4961H377.688V57.0838H380.348Z" fill="black"/>
<path opacity="0.5" d="M384.781 18.4473H389.323V19.936H385.455C385.456 20.0248 385.458 20.0226 385.455 20.255C380.149 24.1865 377.173 26.3552 371.866 30.2866V55.6315L385.137 65.6985L383.575 65.2733L370.908 56.0923V29.5777L383.61 20.4677L385.455 20.255L383.361 20.4677C363.693 21.5548 323.83 23.8636 321.588 23.6934C319.345 23.5232 319.116 24.5205 319.282 25.0405C319.223 35.7574 319.161 57.8009 319.388 60.2397C319.614 62.6785 320.287 62.461 320.594 62.0475L382.262 64.9187L385.137 65.7695L385.953 65.9467L386.024 20.0778H386.945V66.1239H389.323V67.4709C388.732 67.4118 387.393 67.3292 386.769 67.4709C386.144 67.6127 383.505 66.632 382.262 66.1239C362.971 65.0723 323.83 63.0258 321.588 63.2527C319.345 63.4796 318.548 61.5985 318.43 60.6297V24.7923C318.43 22.9774 319.542 22.7127 320.098 22.8072L382.901 19.5461L384.781 18.4473Z" fill="#636363"/>
<path opacity="0.5" d="M320.098 62.9704C319.554 62.864 318.466 62.3465 318.466 61.1271C318.466 59.9078 318.466 36.4912 318.466 24.9353C318.418 24.1909 318.679 22.7021 320.098 22.7021" stroke="black" stroke-opacity="0.5"/>
<path opacity="0.6" d="M379.497 21.001L369.739 29.0476C369.467 29.2248 368.895 29.9905 368.781 31.6353C368.668 33.28 368.735 47.8229 368.781 54.8887C368.84 55.326 369.214 56.4058 370.237 57.2282C371.258 58.0506 376.623 62.6281 379.177 64.814M375.453 21.0011C372.815 23.4705 367.483 28.4946 367.256 28.8349C366.972 29.2603 366.12 29.3311 366.085 31.6353C366.057 33.4785 366.073 47.5747 366.085 54.3925C366.085 54.9951 366.624 56.6966 368.781 58.6816C370.939 60.6666 373.938 63.3842 375.168 64.495M371.3 21.3556L363.566 29.8275V55.0659V56.0585L371.3 64.495" stroke="#636363"/>
<path opacity="0.6" d="M367.4 21.5361L360.942 29.9726V55.4947L367.4 64.2147M363.213 21.5361L358.387 29.4763V55.4947L363.213 63.8957M359.345 21.997L355.477 29.9726L355.265 55.7074L359.345 63.8957M355.477 21.997L352.853 29.9726V55.7074L355.265 63.8957M351.397 22.3514L350.12 29.9726V56.6291L351.397 63.4704M347.424 22.635V30.2562V56.9481V63.2222M343.769 22.635L344.905 30.2562L344.762 55.9201L343.449 62.9387M339.511 22.635L342.066 29.9726V55.7074L339.511 62.9387M335.467 23.0249L339.511 29.4763V55.7074L335.467 62.5842M331.528 23.0249C331.812 23.4503 335.17 28.0229 336.814 30.2562V55.7074L331.528 62.5842M327.66 23.592L334.047 30.2562V55.7074L327.66 62.5842M323.65 23.592C323.85 23.9324 328.984 28.1766 331.528 30.2562V55.9201L323.65 62.2298M386.276 23.4503L384.325 24.5507M384.325 24.5507L371.8 32.2413H328.973L319.215 26.8532M384.325 24.5507V28.98M384.325 28.98L371.8 34.5099H328.476L319.215 30.7524M384.325 28.98V32.8084M384.325 61.2372L386.276 62.4423M384.325 61.2372V57.0898M384.325 61.2372L371.8 53.8287H328.476L319.215 58.5432M384.325 57.0898V52.9426M384.325 57.0898L371.977 51.4891H328.476L319.215 55.4947M384.325 32.8084L371.8 36.8494H328.476L319.215 34.0845M384.325 32.8084V36.8494M384.325 36.8494L371.8 39.3662H328.476L319.215 37.6647M384.325 36.8494V41.0676M384.325 41.0676L371.8 41.7411H328.476L319.215 41.0676M384.325 41.0676V44.8251M384.325 44.8251L371.8 44.3288H328.476L319.215 44.8251M384.325 44.8251V49.2205M384.325 49.2205L371.8 46.6683H328.476L319.215 48.4052M384.325 49.2205V52.9426M384.325 52.9426L371.8 49.2205H328.476L319.215 51.8791M379.286 24.0174L323.048 26.2152V59.7483L379.286 61.8044M373.68 28.0229L327.163 28.98V57.0898L373.68 57.9051" stroke="#636363" stroke-width="0.5"/>
<path d="M389.217 18.0586V20.3981H391.985V65.31H388.898V67.6849H395.214V65.31H394.113V20.3981H394.858V18.0586H389.217Z" fill="#FF5B52"/>
<path d="M395.991 54.4923C394.052 54.4923 392.48 56.065 392.48 58.005C392.48 59.9449 394.052 61.5176 395.991 61.5176H405.019C406.958 61.5176 408.53 59.9449 408.53 58.005C408.53 56.065 406.958 54.4923 405.019 54.4923H395.991Z" fill="#F1CD70"/>
<path d="M386.391 26.1153C384.456 26.2424 382.991 27.9146 383.118 29.8504C383.245 31.7862 384.916 33.2525 386.851 33.1255L395.859 32.534C397.794 32.407 399.26 30.7348 399.133 28.799C399.006 26.8632 397.334 25.3969 395.4 25.5239L386.391 26.1153Z" fill="#F1CD70"/>
<path d="M401.508 61.5174V54.4922H410.035C411.974 54.4922 413.545 56.0648 413.545 58.0047C413.545 59.9447 411.974 61.5174 410.035 61.5174H401.508Z" fill="#276725"/>
<path d="M392.355 32.7707L391.895 25.7606L407.454 24.7391C409.389 24.6121 411.06 26.0784 411.187 28.0142C411.314 29.95 409.849 31.6222 407.914 31.7492L392.355 32.7707Z" fill="#276725"/>
<path d="M411.602 61.5135C408.753 61.5135 406.445 59.2036 406.445 56.3541V28.2551C406.445 25.4057 408.753 23.0957 411.602 23.0957H416.415C419.263 23.0957 421.571 25.4057 421.571 28.2551V56.3541C421.571 59.2036 419.263 61.5135 416.415 61.5135H411.602Z" fill="#42934A"/>
<path d="M419.145 40.4549C419.145 35.5786 414.911 31.6256 409.69 31.6256C404.468 31.6256 400.234 35.5786 400.234 40.4549C400.234 45.3312 404.468 49.2842 409.69 49.2842C414.911 49.2842 419.145 45.3312 419.145 40.4549Z" fill="#F1CD70"/>
<path d="M418.087 34.6293C418.087 33.7879 415.247 30.8902 412.516 30.0723H407.928L403.995 32.1755L403.34 33.2271L404.65 35.6809L403.34 37.7842L405.306 39.8874L405.961 41.6401L405.306 44.7951L403.34 47.2487L404.65 50.7542L411.205 51.8058C413.171 50.7542 416.383 50.614 417.432 50.0532C418.48 49.4923 417.432 46.5477 420.053 47.2487C419.726 45.9635 419.267 43.0423 420.053 41.6401C421.037 39.8874 419.726 39.1864 419.071 37.7842C418.414 36.382 418.087 35.6809 418.087 34.6293Z" fill="#303030"/>
<path d="M408.769 31.624C414.34 31.624 418.854 35.7943 418.854 40.9385C418.854 46.0827 414.34 50.2529 408.769 50.2529C403.2 50.2529 398.684 47.9242 398.684 40.9385C398.684 35.7943 403.2 31.624 408.769 31.624Z" fill="#42934A"/>
<path d="M408.768 39.3818C408.34 39.3818 407.992 39.7293 407.992 40.1581C407.992 40.5867 408.34 40.9343 408.768 40.9343C409.196 40.9343 409.544 40.7402 409.544 40.1581C409.544 39.7293 409.196 39.3818 408.768 39.3818Z" fill="#276725"/>
<path d="M403.338 33.1675C396.51 37.5458 398.684 47.9105 404.114 49.4741C400.494 50.5165 392.478 50.6245 392.477 41.2425C392.477 31.8606 399.718 32.3856 403.338 33.1675Z" fill="#276725"/>
<path opacity="0.5" d="M650.082 51.6644V33.9053L673.683 32.1684V53.4722L650.082 51.6644ZM673.651 56.0954L696.315 55.9181L696.001 29.9707L673.683 30.1834L673.651 56.0954Z" stroke="#B7B7B7" stroke-width="2"/>
<path opacity="0.5" d="M656.298 50.6338V53.2214H653.637V50.6338H656.298Z" fill="black"/>
<path opacity="0.5" d="M697.489 54.7441V57.3317H694.828V54.7441H697.489Z" fill="black"/>
<path opacity="0.5" d="M656.298 32.2715V34.8592H653.637V32.2715H656.298Z" fill="black"/>
<path opacity="0.5" d="M697.489 28.6582V31.2459H694.828V28.6582H697.489Z" fill="black"/>
<path opacity="0.5" d="M701.922 67.2955H706.463V65.8066H702.596C702.597 65.718 702.598 65.72 702.596 65.4876C697.289 61.5561 694.314 59.3874 689.006 55.456V30.1111L702.277 20.0441L700.716 20.4695L688.048 29.6503V56.1649L700.751 65.2749L702.596 65.4876L700.502 65.2749C680.834 64.1878 640.971 61.879 638.729 62.0492C636.486 62.2194 636.256 61.222 636.422 60.7022C636.363 49.9852 636.301 27.9417 636.528 25.503C636.755 23.0641 637.428 23.2816 637.735 23.6951L699.402 20.8239L702.277 19.9731L703.093 19.7959L703.164 65.6648H704.086V19.6187H706.463V18.2717C705.873 18.3307 704.533 18.4134 703.909 18.2717C703.284 18.1299 700.645 19.1106 699.402 19.6187C680.112 20.6703 640.971 22.7168 638.729 22.4899C636.486 22.263 635.689 24.1441 635.57 25.1131V60.9503C635.57 62.7652 636.683 63.0299 637.239 62.9354L700.042 66.1965L701.922 67.2955Z" fill="#636363"/>
<path opacity="0.5" d="M637.239 22.7725C636.695 22.8789 635.607 23.3964 635.607 24.6158C635.607 25.8352 635.607 49.2518 635.607 60.8076C635.559 61.552 635.819 63.0407 637.239 63.0407" stroke="black" stroke-opacity="0.5"/>
<path opacity="0.6" d="M696.638 64.7427L686.88 56.6961C686.608 56.5189 686.035 55.7532 685.922 54.1085C685.808 52.4637 685.875 37.9208 685.922 30.855C685.981 30.4177 686.355 29.3379 687.377 28.5155C688.398 27.693 693.764 23.1156 696.318 20.9297M692.593 64.7427C689.956 62.2732 684.624 57.249 684.397 56.9088C684.113 56.4834 683.261 56.4126 683.226 54.1085C683.198 52.2652 683.213 38.169 683.226 31.3512C683.226 30.7486 683.765 29.0471 685.922 27.062C688.08 25.0771 691.079 22.3595 692.308 21.2487M688.441 64.3881L680.707 55.9162V30.6778V29.6852L688.441 21.2487" stroke="#636363"/>
<path opacity="0.6" d="M684.541 64.2069L678.083 55.7705V30.2484L684.541 21.5283M680.353 64.2069L675.528 56.2667V30.2484L680.353 21.8473M676.486 63.7462L672.618 55.7705L672.405 30.0357L676.486 21.8473M672.618 63.7462L669.993 55.7705V30.0357L672.405 21.8473M668.538 63.3916L667.26 55.7705V29.1141L668.538 22.2727M664.564 63.1081V55.4868V28.795V22.5209M660.91 63.1081L662.045 55.4868L661.902 29.823L660.59 22.8044M656.651 63.1081L659.207 55.7705V30.0357L656.651 22.8044M652.607 62.7182L656.651 56.2667V30.0357L652.607 23.1588M648.669 62.7182C648.952 62.2928 652.311 57.7201 653.954 55.4868V30.0357L648.669 23.1588M644.801 62.151L651.188 55.4868V30.0357L644.801 23.1588M640.79 62.151C640.99 61.8107 646.125 57.5665 648.669 55.4868V29.823L640.79 23.5134M703.417 62.2928L701.465 61.1924M701.465 61.1924L688.941 53.5019H646.113L636.355 58.8899M701.465 61.1924V56.763M701.465 56.763L688.941 51.2332H645.617L636.355 54.9906M701.465 56.763V52.9346M701.465 24.5058L703.417 23.3007M701.465 24.5058V28.6532M701.465 24.5058L688.941 31.9144H645.617L636.355 27.1998M701.465 28.6532V32.8006M701.465 28.6532L689.117 34.2539H645.617L636.355 30.2484M701.465 52.9346L688.941 48.8936H645.617L636.355 51.6586M701.465 52.9346V48.8936M701.465 48.8936L688.941 46.3769H645.617L636.355 48.0784M701.465 48.8936V44.6754M701.465 44.6754L688.941 44.002H645.617L636.355 44.6754M701.465 44.6754V40.9181M701.465 40.9181L688.941 41.4143H645.617L636.355 40.9181M701.465 40.9181V36.5225M701.465 36.5225L688.941 39.0747H645.617L636.355 37.3378M701.465 36.5225V32.8006M701.465 32.8006L688.941 36.5225H645.617L636.355 33.864M696.427 61.7256L640.188 59.5278V25.9947L696.427 23.9387M690.82 57.7201L644.303 56.763V28.6532L690.82 27.8379" stroke="#636363" stroke-width="0.5"/>
<path d="M706.358 67.6849V65.3453H709.125V20.4335H706.039V18.0586H712.355V20.4335H711.254V65.3453H711.999V67.6849H706.358Z" fill="#FF5B52"/>
<path d="M709.621 27.7382L709.621 27.7382C709.621 25.7982 711.193 24.2256 713.132 24.2256L722.16 24.2256C724.099 24.2256 725.671 25.7982 725.671 27.7382C725.671 29.6782 724.099 31.2508 722.16 31.2508L713.132 31.2508C711.193 31.2508 709.621 29.6782 709.621 27.7382Z" fill="#F1CD70"/>
<path d="M700.262 55.8928L700.262 55.8928C700.389 53.957 702.061 52.4907 703.995 52.6177L713.004 53.2091C714.939 53.3361 716.404 55.0084 716.277 56.9442C716.15 58.88 714.479 60.3463 712.544 60.2193L703.536 59.6278C701.601 59.5008 700.135 57.8286 700.262 55.8928Z" fill="#F1CD70"/>
<path d="M718.652 24.2256V31.2509H727.179C729.118 31.2509 730.69 29.6782 730.69 27.7382C730.69 25.7983 729.118 24.2257 727.179 24.2257L718.652 24.2256Z" fill="#276725"/>
<path d="M709.495 52.9727L709.035 59.9828L724.595 61.0042C726.53 61.1312 728.2 59.6649 728.328 57.7291C728.454 55.7934 726.99 54.1211 725.055 53.9941L709.495 52.9727Z" fill="#276725"/>
<path d="M728.743 24.2295C725.894 24.2295 723.586 26.5394 723.586 29.3889V57.4879C723.586 60.3373 725.894 62.6473 728.743 62.6473H733.555C736.403 62.6473 738.712 60.3373 738.712 57.4879V29.3889C738.712 26.5394 736.403 24.2295 733.555 24.2295H728.743Z" fill="#42934A"/>
<path d="M736.285 45.2883C736.285 50.1646 732.052 54.1176 726.83 54.1176C721.608 54.1176 717.375 50.1646 717.375 45.2883C717.375 40.412 721.608 36.459 726.83 36.459C732.052 36.459 736.285 40.412 736.285 45.2883Z" fill="#F1CD70"/>
<path d="M735.232 51.1131C735.232 51.9544 732.391 54.8522 729.661 55.6702H725.073L721.139 53.5668L720.484 52.5152L721.794 50.0614L720.484 47.9581L722.45 45.8549L723.105 44.1023L722.45 40.9474L720.484 38.4936L721.794 34.9881L728.35 33.9365C730.316 34.9881 733.527 35.1284 734.577 35.6892C735.625 36.25 734.577 39.1946 737.198 38.4936C736.87 39.7789 736.411 42.7001 737.198 44.1023C738.181 45.8549 736.87 46.5561 736.215 47.9581C735.559 49.3604 735.232 50.0614 735.232 51.1131Z" fill="#303030"/>
<path d="M725.91 54.1191C731.48 54.1191 735.995 49.949 735.995 44.8047C735.995 39.6605 731.48 35.4902 725.91 35.4902C720.34 35.4902 715.824 37.8189 715.824 44.8047C715.824 49.949 720.34 54.1191 725.91 54.1191Z" fill="#42934A"/>
<path d="M725.913 46.3609C725.485 46.3609 725.137 46.0134 725.137 45.5847C725.137 45.1561 725.485 44.8086 725.913 44.8086C726.341 44.8086 726.689 45.0026 726.689 45.5847C726.689 46.0134 726.341 46.3609 725.913 46.3609Z" fill="#276725"/>
<path d="M720.483 52.5758C713.655 48.1977 715.829 37.8328 721.259 36.2692C717.639 35.2268 709.622 35.1188 709.621 44.5008C709.621 53.8827 716.863 53.3578 720.483 52.5758Z" fill="#276725"/>
</svg>
