<svg width="213" height="55" viewBox="0 0 213 55" fill="none" xmlns="http://www.w3.org/2000/svg">
<rect x="209.367" y="0.5" width="54" height="205.974" transform="rotate(90 209.367 0.5)" fill="#F0F1F4" stroke="#589E5F"/>
<rect x="33.2891" y="11.5791" width="24.6053" height="8.68421" transform="rotate(180 33.2891 11.5791)" fill="#53D8ED"/>
<rect x="33.2891" y="41.9736" width="24.6053" height="8.68421" transform="rotate(180 33.2891 41.9736)" fill="#FCB205"/>
<rect x="117.234" y="41.9736" width="24.6053" height="8.68421" transform="rotate(180 117.234 41.9736)" fill="#597A7D"/>
<rect x="60.7891" y="11.5791" width="24.6053" height="8.68421" transform="rotate(180 60.7891 11.5791)" fill="#53D8ED"/>
<rect x="60.7891" y="41.9736" width="24.6053" height="8.68421" transform="rotate(180 60.7891 41.9736)" fill="#FCB205"/>
<rect x="144.734" y="41.9736" width="24.6053" height="8.68421" transform="rotate(180 144.734 41.9736)" fill="#597A7D"/>
<rect x="88.2891" y="11.5791" width="24.6053" height="8.68421" transform="rotate(180 88.2891 11.5791)" fill="#53D8ED"/>
<rect x="88.2891" y="41.9736" width="24.6053" height="8.68421" transform="rotate(180 88.2891 41.9736)" fill="#FCB205"/>
<rect x="173.684" y="41.9736" width="24.6053" height="8.68421" transform="rotate(180 173.684 41.9736)" fill="#38A049"/>
<rect x="201.184" y="41.9736" width="24.6053" height="8.68421" transform="rotate(180 201.184 41.9736)" fill="#38A049"/>
<rect x="117.234" y="11.5791" width="24.6053" height="8.68421" transform="rotate(180 117.234 11.5791)" fill="#FFEE66"/>
<rect x="146.184" y="11.5791" width="24.6053" height="8.68421" transform="rotate(180 146.184 11.5791)" fill="#FFEE66"/>
<rect x="173.684" y="11.5791" width="24.6053" height="8.68421" transform="rotate(180 173.684 11.5791)" fill="#FFEE66"/>
<rect x="204.078" y="11.5791" width="24.6053" height="8.68421" transform="rotate(180 204.078 11.5791)" fill="#A13DBA"/>
<rect x="33.2891" y="21.7109" width="24.6053" height="8.68421" transform="rotate(180 33.2891 21.7109)" fill="#53D8ED"/>
<rect x="33.2891" y="52.1055" width="24.6053" height="8.68421" transform="rotate(180 33.2891 52.1055)" fill="#FCB205"/>
<rect x="117.234" y="52.1055" width="24.6053" height="8.68421" transform="rotate(180 117.234 52.1055)" fill="#597A7D"/>
<rect x="60.7891" y="21.7109" width="24.6053" height="8.68421" transform="rotate(180 60.7891 21.7109)" fill="#53D8ED"/>
<rect x="60.7891" y="52.1055" width="24.6053" height="8.68421" transform="rotate(180 60.7891 52.1055)" fill="#FCB205"/>
<rect x="144.734" y="52.1055" width="24.6053" height="8.68421" transform="rotate(180 144.734 52.1055)" fill="#597A7D"/>
<rect x="88.2891" y="21.7109" width="24.6053" height="8.68421" transform="rotate(180 88.2891 21.7109)" fill="#53D8ED"/>
<rect x="88.2891" y="52.1055" width="24.6053" height="8.68421" transform="rotate(180 88.2891 52.1055)" fill="#FCB205"/>
<rect x="173.684" y="52.1055" width="24.6053" height="8.68421" transform="rotate(180 173.684 52.1055)" fill="#38A049"/>
<rect x="201.184" y="52.1055" width="24.6053" height="8.68421" transform="rotate(180 201.184 52.1055)" fill="#38A049"/>
<rect x="117.234" y="21.7109" width="24.6053" height="8.68421" transform="rotate(180 117.234 21.7109)" fill="#FFEE66"/>
<rect x="146.184" y="21.7109" width="24.6053" height="8.68421" transform="rotate(180 146.184 21.7109)" fill="#FFEE66"/>
<rect x="173.684" y="21.7109" width="24.6053" height="8.68421" transform="rotate(180 173.684 21.7109)" fill="#FFEE66"/>
<rect x="204.078" y="21.7109" width="24.6053" height="8.68421" transform="rotate(180 204.078 21.7109)" fill="#A13DBA"/>
<rect x="212.512" y="28.6973" width="212.263" height="2.39474" transform="rotate(180 212.512 28.6973)" fill="#42934A" stroke="#276725" stroke-width="0.5"/>
</svg>
